<?xml version="1.0" encoding="utf-8"?>
<!-- Generator: Adobe Illustrator 28.0.0, SVG Export Plug-In . SVG Version: 6.00 Build 0)  -->
<svg version="1.1" id="Layer_1" xmlns="http://www.w3.org/2000/svg" xmlns:xlink="http://www.w3.org/1999/xlink" x="0px" y="0px"
	 viewBox="0 0 512 512" style="enable-background:new 0 0 512 512;" xml:space="preserve">
<style type="text/css">
	.st0{fill:#FFFFFF;}
</style>
<path class="st0" d="M256,341.3c-47.1,0-85.3-38.2-85.3-85.3s38.2-85.3,85.3-85.3s85.3,38.2,85.3,85.3S303.1,341.3,256,341.3z
	 M121.2,341.3H21.3C9.6,341.3,0,331.8,0,320c0.4-63.3,46.9-116.8,109.5-126.2c11.7-1.6,22.5,6.5,24.1,18.2c0.4,3,0.2,6-0.6,8.8
	c-3.3,11.4-4.9,23.3-4.9,35.2c0,19,4.3,37.7,12.5,54.8c5.1,10.6,0.6,23.4-10.1,28.4C127.6,340.6,124.5,341.3,121.2,341.3
	L121.2,341.3z M362.7,512H149.3c-11.8,0-21.3-9.6-21.3-21.3c0-70.7,57.3-128,128-128s128,57.3,128,128
	C384,502.4,374.4,512,362.7,512z M384,170.7c-47.1,0-85.3-38.2-85.3-85.3S336.9,0,384,0s85.3,38.2,85.3,85.3S431.1,170.7,384,170.7z
	 M128,170.7c-47.1,0-85.3-38.2-85.3-85.3S80.9,0,128,0s85.3,38.2,85.3,85.3S175.1,170.7,128,170.7z M490.7,341.3h-99.9
	c-11.8,0-21.3-9.6-21.3-21.4c0-3.2,0.7-6.3,2.1-9.1C379.8,293.7,384,275,384,256c0-11.9-1.7-23.8-5-35.2
	c-3.3-11.3,3.3-23.1,14.6-26.4c2.9-0.8,6-1,9-0.6c62.6,9.4,109,62.9,109.5,126.2C512,331.8,502.4,341.3,490.7,341.3z"/>
</svg>
