<?xml version="1.0" encoding="utf-8"?>
<!-- Generator: Adobe Illustrator 28.0.0, SVG Export Plug-In . SVG Version: 6.00 Build 0)  -->
<svg version="1.1" id="Layer_1" xmlns="http://www.w3.org/2000/svg" xmlns:xlink="http://www.w3.org/1999/xlink" x="0px" y="0px"
	 viewBox="0 0 24 24" style="enable-background:new 0 0 24 24;" xml:space="preserve">
<style type="text/css">
	.st0{fill:#FFFFFF;}
</style>
<path class="st0" d="M16.8,17.8c0.6,0.6,0.6,1.5,0,2.1c-0.6,0.6-1.5,0.6-2.1,0l-5.8-5.8l-1.4,1.4l5.4,5.4c0.6,0.6,0.6,1.5,0,2.1
	c-0.6,0.6-1.5,0.6-2.1,0L6,18.4c-3-2.9-6-6.7-6-10.4c0-3.9,2.9-7,6.5-7c1.8,0,3.1,0.7,4.2,1.4L7.1,6c-0.7,0.7-1,1.5-1,2.5
	s0.4,1.8,1,2.5c0.7,0.7,1.5,1,2.5,1c0.4,0,0.8-0.1,1.2-0.2L16.8,17.8L16.8,17.8z M14.5,8.5l-2.1,2.1l6.1,6c0.6,0.6,1.5,0.6,2.1,0
	c0.9-0.9,0.1-1.9,0.1-1.9L14.5,8.5L14.5,8.5z M17.5,1.1c-1.6,0-3.2,0.7-4.4,1.8L8.5,7.5C7.9,8.1,7.9,9,8.5,9.6
	c0.6,0.6,1.5,0.6,2.1,0l3.9-3.9l7.7,7.7c1.2-1.9,1.8-3.7,1.8-5.4C24.1,4.2,21.1,1.1,17.5,1.1L17.5,1.1z"/>
</svg>
