<?xml version="1.0" encoding="UTF-8"?>
<svg id="Layer_1" data-name="Layer 1" xmlns="http://www.w3.org/2000/svg" viewBox="0 0 3741.94 3742.01">
  <defs>
    <style>
      .cls-1 {
        fill: #fff;
        stroke-width: 0px;
      }
    </style>
  </defs>
  <path class="cls-1" d="m1801.94.93c-30.1,1-33.6,1.8-40.5,8.8-3.7,3.6-5.3,6.2-6.6,10.6-2.3,7.9-1.5,12.8,4.6,26.9,59.1,136.9,75.4,311.9,43.9,471.3-20.3,102.9-58.9,192.2-111.7,258.4-18.2,22.8-51.8,54.9-62.7,59.9-2.3,1.1-6.3,1.9-9.7,1.9-5.1,0-7.3-.8-23.5-8.9-102.5-50.9-190-131.8-249.1-230.3-48-80-75.3-164.7-84.4-261.3-1.7-18.4-1.7-82.5,0-100,3.2-32.5,7.1-57.5,13.8-87,4-17.7,4.4-20.4,3.4-24.8-1.4-6.6-3.2-9.7-8-14.1-5.6-5.1-9.7-6.6-17.4-6.6-5.5,0-9.2,1-25.3,6.9-121.9,44.8-234.3,99.5-345.7,168.5-29,18-29.2,18.2-28.3,47.9,2.2,69.5,14,148.6,32.7,218.8,17.9,67.5,38.7,122.2,70.6,185.9,72.3,144.2,175.5,267.8,304.7,364.8,21.4,16.1,27.8,20.2,57.7,36.9,103,57.6,188.4,98.6,251.5,120.7,21.2,7.5,23.1,8.3,26.7,12.5,6.6,7.5,6.2,2.9,6.8,86.6.5,72.1.6,76.2,2.4,79.8,4,8,12,13.5,21.1,14.4,4.6.5,7.7-.2,23.6-5.5,47.8-15.9,90.5-24.7,143.9-29.8,22.7-2.1,76.8-3,100.5-1.5,67,4.1,126.7,16.2,182.3,37,13,4.9,17.4,6.1,22,6.1,9.6-.1,18-5,22.5-13.5,2.2-4,2.2-4.4,2.7-83.5l.5-79.5,3-5.4c4.1-7.4,8.1-10,24.2-15.5,70.3-24.2,171.2-73.9,284.2-139.8,58.4-34.2,141.9-109.6,205-185.3,86.7-103.8,154.2-227.5,191.2-350,26.3-87.2,42-184.5,43.1-266.5.2-14.9.1-15.7-2.4-20.5-3.3-6.4-4.9-7.8-19.3-16.7-102.9-63.9-217.4-120-330.5-162.1-45.4-16.9-47.6-17.4-57.1-14.2-10.1,3.5-16.9,13-16.9,23.8,0,3.2,1.3,11.1,2.9,17.5,12.6,50.2,17.8,98.8,16.8,155.2-.6,31.3-1.9,48.7-5.8,75.5-27.9,193.5-149,362.5-323.9,452.2-22.9,11.7-28.7,11.4-44.9-2.2-47.8-40.2-90.5-103-120.3-177-28.2-69.9-45.1-146.5-52-234.5-1.7-21.7-1.7-96.2,0-118,7.2-93.2,25.8-173.7,57.3-247.2,5.3-12.4,5.9-14.5,5.9-20.7,0-5.6-.5-7.9-2.8-12.2-3-5.9-9.6-11.2-16-12.8-10.1-2.6-112.4-3.8-166.7-1.9Z"/>
  <path class="cls-1" d="m3239.94,615.63c-8.8,2.3-15.6,8.8-18.4,17.6-1.1,3.3-4.3,14.3-7.1,24.5-24.2,86.5-58.7,174.8-100.5,257.5-81.5,160.8-191.1,303.1-326.6,423.8-19,16.9-21,19.7-21.6,30.1l-.5,7.1,16,31.5c16.6,32.9,28.4,58.9,39.7,87.4,33.3,84.2,55.8,174.8,65.5,264.1,7,64.8,7.8,134.7,2.4,198.5-18.3,216.7-105.5,421.9-249,585.7-129.7,148.2-299.4,256-487.4,309.8-41.2,11.8-99.5,24.7-112,24.8-9.6.1-18-5-22.8-13.7-1.6-2.9-1.7-20.1-2.2-272.6l-.5-269.5-2.3-4.7c-4.7-9.6-15.4-15.6-25.7-14.5-3.7.4-9.2,2.4-17.7,6.5-21.8,10.6-41.5,16.9-65.3,20.9-15.1,2.5-52.5,2.5-67,0-28.2-5-51.7-13.4-80-28.9-14.3-7.8-31.4-2.8-37.9,11.2l-2.1,4.5-.5,271c-.4,205.5-.8,271.6-1.7,273.6-3.5,7.9-13.9,14.9-22,14.9-2.2,0-14.2-2-26.4-4.5-127-25.9-248.1-75.9-356.1-147.1-254.5-167.6-420.8-437.9-454.7-738.9-4.2-36.8-5.3-55.7-5.8-101.2-.7-54.9.9-87.3,6.2-133.8,14-120.2,51.1-241.3,106.8-348.5,10-19.3,10.1-19.6,10.1-26.5,0-10.1-2.9-15-15.8-26.2-45.8-39.8-98.4-92-137.6-136.8-61.3-69.9-118-148.9-163.2-227.5-57.3-99.4-103.2-206.3-134.3-313-3.1-10.7-6.8-23.1-8.1-27.6-3.1-10.5-6.7-15.4-14-19-4.5-2.2-7.2-2.8-12.3-2.8-10.1,0-14.4,2.8-28.2,18.7-79.8,91.6-152.6,193.7-211.6,296.7-27.7,48.3-62.3,115-64.2,123.8-1.3,6.2-.1,13.9,3,18.8,2.9,4.7,2.4,4.3,126.1,104.8,122.6,99.5,116.9,94.3,117.6,106.1.4,5.5-.2,7.5-6.3,23.4-37.2,96.9-63.3,192.6-81,297.4-4,24-5.9,32.6-7.5,35.2-3,4.8-9.2,10-13.7,11.3-2.1.6-69,10.4-148.8,21.7-79.7,11.3-147.2,21.2-150,22-6.5,1.9-11.9,6.5-15.1,12.7-2.8,5.5-3.7,15-6.6,68.3-1.6,30.9-1.7,142,0,172.5,2.3,43.3,3.3,54.4,4.9,58.9,1.9,5.4,7.4,11.6,12.4,14.1,2.7,1.4,44.8,8.5,151.1,25.5,81,13,148.9,24,150.9,24.5,5.2,1.4,11.4,6.3,14.3,11.3,2,3.4,3.3,8.7,6,25.8,17.3,106.1,43.1,203.3,80.2,301.7,6.8,18,8.4,23.4,8.4,27.8,0,6.7-2.7,12.8-7.8,17.6-2,1.9-55.8,44.3-119.5,94.2-76.5,60-116.6,92-118.1,94.4-3.5,5.5-4.9,10.8-4.4,16.9.4,4.6,2.9,10.3,14.7,34.1,35.5,71.3,73.5,137.1,117.4,203.2,16.5,24.9,19.6,27.5,32.7,27.4,7.5,0,8.2-.3,148-53.9,129.8-49.8,141-53.9,146.5-53.9,11.3.1,11.6.4,42.8,37.9,57.8,69.6,125,136.9,195.7,195.8,11.3,9.4,22.9,19.1,25.9,21.6,3.6,3,6.2,6.3,7.9,9.9,4.8,10.6,7.6,2.6-54.3,156.2-51.2,127-55.8,139-55.9,144.5-.1,8,2.4,14.4,7.7,19.2,8.3,7.7,62.6,42.9,104.7,68,41.4,24.7,86.9,49.5,127.4,69.5l18.9,9.3h8.1c7.1,0,8.7-.4,12.8-2.8,4-2.3,21-22.8,99.7-119.6,52.2-64.2,96.3-117.9,98-119.4,4.2-3.5,13.1-6.1,17.9-5.2,2.1.4,10.7,3.4,19.2,6.7,94.3,36.4,198.1,64.5,302.3,81.8,13.6,2.2,25.6,4.4,26.5,4.7,4.3,1.6,10.4,6.8,12.8,10.9,2.5,4.2,4,13.9,24,154,20,140,21.5,149.8,24.1,154.5,3,5.5,8.9,10.4,14.3,11.9,4.1,1.1,37.4,3.5,72.5,5.1,31.8,1.5,125.8,1.6,156.5.1,45.1-2.2,60.5-3.4,65.9-4.8,7.4-2.1,14.4-9.1,16.5-16.5.8-3,11.9-70.7,24.6-150.4,12.7-79.8,23.8-147,24.7-149.4,2-5.6,7.3-11.4,12.6-14,2.4-1.1,10.6-2.9,18.7-4.1,98.3-14.7,211.6-44.6,307.5-81.3,24.8-9.5,29.4-10.1,38.2-5.2,4.8,2.5,13,12.7,98.8,122.1,91.4,116.6,93.6,119.3,99.2,122,4.2,2.1,7.1,2.8,11.7,2.8,5.5,0,7.7-.7,20.6-6.8,18.7-8.6,64.2-32.4,93-48.4,59.4-33,142.8-85.8,148.9-94.2,3.6-5,5.5-11.7,4.9-17.7-.3-3-20.6-57.3-54.3-145.3-59.5-155.3-56.5-146.3-51.5-156.9,2.1-4.6,4.8-7.2,21.5-20.9,42.9-35.3,70.2-60,109.3-98.7,42-41.4,66.4-68,103.3-112.1,12-14.4,23-27.1,24.5-28.3,3.9-3.1,12.8-5.4,17.2-4.6,2.1.4,66.3,25.8,142.9,56.6,132.8,53.3,139.5,55.9,145.5,55.9,8.2,0,15.2-3.2,20-9.1,8.8-10.9,41.7-62,65.3-101.4,26.5-44.3,59-103.9,74.2-136.5,5.6-11.9,6.3-14.2,6.3-19.5,0-6.5-2.5-13.2-6.3-17.4-1.2-1.3-54.6-44.9-118.6-96.9-67.8-55.1-117.3-96-118.7-98.1-3.2-4.9-4.7-12.7-3.5-17.7.5-2.1,4.5-13.4,8.9-24.9,36.6-96.4,64-199.4,80.2-301.3,1.8-11.5,3.7-20,5-22.8,2.4-4.8,7.7-10,12.5-12,1.8-.7,69.9-10.8,151.5-22.4,81.5-11.6,149.7-21.7,151.5-22.4,5.1-2.2,11.1-8.1,13.3-13.4s2.6-9.3,4.7-44.1c4-68,4-150.3,0-219.6-1.7-29.6-2.1-32.8-4.6-37.6-2.5-5.1-10.1-11.4-15.1-12.8-2.4-.6-70.4-11.7-151.3-24.6-110.2-17.7-148-24.1-151.2-25.6-9.3-4.5-12.3-10.9-15.8-33.4-15.4-99.1-42.5-202.1-79-300-5.1-13.8-9.6-26.4-9.9-28.1-.9-4.1,1-12.1,3.8-16.5,1.5-2.2,46.2-37.9,119.7-95.6,64.6-50.7,118.6-93.4,120.1-94.9,4.2-4.5,6.1-10.1,6.1-17.7,0-6.7-.1-7-15.1-37-52.2-104.6-110-198-180.1-291.2-41.6-55.3-99.5-124.1-108.2-128.5-4.3-2.3-13.8-3.3-18.4-2.1Z"/>
  <path class="cls-1" d="m1838.24,1607.23c-59.6,7.5-113,33.6-155.3,76-43.7,43.6-70.5,99.9-76.6,160.9-1.9,19.1-.7,53.8,2.4,71.6,13.2,74.5,54.6,137.4,117.2,178.3,56.5,36.9,126.5,50.7,194.1,38.2,40.3-7.5,77.2-23.8,111.3-49.2,15.1-11.3,40.1-36.3,51.4-51.4,37.4-50.2,55.4-107.3,53.4-169.4-.7-19.6-2.3-32.3-6.3-50.3-21.3-95.5-95.8-172.8-190.6-197.6-24.1-6.4-35.3-7.8-64.3-8.2-17.8-.2-29.4.1-36.7,1.1Z"/>
</svg>