<?xml version="1.0" encoding="utf-8"?>
<!-- Generator: Adobe Illustrator 28.0.0, SVG Export Plug-In . SVG Version: 6.00 Build 0)  -->
<svg version="1.1" id="Layer_1" xmlns="http://www.w3.org/2000/svg" xmlns:xlink="http://www.w3.org/1999/xlink" x="0px" y="0px"
	 viewBox="0 0 512 512" style="enable-background:new 0 0 512 512;" xml:space="preserve">
<style type="text/css">
	.st0{fill:#FFFFFF;}
</style>
<path class="st0" d="M256,0C114.8,0,0,114.8,0,256c12.9,339.2,499.2,339.1,512,0C512,114.8,397.2,0,256,0z M277.3,362.7V384
	c-0.1,27.9-42.6,27.9-42.7,0v-21.3h-5.7c-22.8,0-44-12.2-55.4-32c-5.9-10.2-2.4-23.3,7.8-29.1c10.2-6,23.3-2.4,29.1,7.8
	c3.8,6.6,10.9,10.7,18.5,10.7h48.4c21.3,1.4,30.8-33.1,7.6-37.5L220,271.6c-74.7-13.8-58.6-122.7,14.6-122.3V128
	c0.1-27.9,42.6-27.9,42.7,0v21.3h5.7c22.8,0,44,12.3,55.4,32c5.9,10.2,2.4,23.2-7.8,29.1c-10.2,5.9-23.3,2.4-29.1-7.8
	c-3.8-6.6-10.9-10.7-18.5-10.7h-48.4c-21.3-1.4-30.8,33.1-7.6,37.5l64.9,10.8C366.7,254.2,350.6,363.1,277.3,362.7L277.3,362.7z"/>
</svg>
